<mxfile host="Electron" agent="Mozilla/5.0 (Macintosh; Intel Mac OS X 10_15_7) AppleWebKit/537.36 (KHTML, like Gecko) draw.io/24.7.17 Chrome/128.0.6613.36 Electron/32.0.1 Safari/537.36" version="24.7.17">
  <diagram name="Page-1" id="X5tnlgAVyngEj4t96FII">
    <mxGraphModel dx="1616" dy="1699" grid="1" gridSize="10" guides="1" tooltips="1" connect="1" arrows="1" fold="1" page="1" pageScale="1" pageWidth="827" pageHeight="1169" math="0" shadow="0">
      <root>
        <mxCell id="0" />
        <mxCell id="1" parent="0" />
        <mxCell id="V1QFwFLwy4jovvy6-5oq-59" value="" style="rounded=1;whiteSpace=wrap;html=1;" parent="1" vertex="1">
          <mxGeometry x="10" y="287.11" width="540" height="182.53" as="geometry" />
        </mxCell>
        <mxCell id="V1QFwFLwy4jovvy6-5oq-57" value="" style="rounded=1;whiteSpace=wrap;html=1;" parent="1" vertex="1">
          <mxGeometry x="-210" y="287.11" width="217.5" height="182.53" as="geometry" />
        </mxCell>
        <mxCell id="V1QFwFLwy4jovvy6-5oq-1" value="ECU" style="rounded=1;whiteSpace=wrap;html=1;" parent="1" vertex="1">
          <mxGeometry y="88" width="120" height="60" as="geometry" />
        </mxCell>
        <mxCell id="V1QFwFLwy4jovvy6-5oq-2" value="Battery" style="rounded=0;whiteSpace=wrap;html=1;" parent="1" vertex="1">
          <mxGeometry x="399.08" y="-10" width="80" height="60" as="geometry" />
        </mxCell>
        <mxCell id="V1QFwFLwy4jovvy6-5oq-3" value="Master Cutoff" style="whiteSpace=wrap;html=1;aspect=fixed;" parent="1" vertex="1">
          <mxGeometry x="259.08" y="33" width="50" height="50" as="geometry" />
        </mxCell>
        <mxCell id="V1QFwFLwy4jovvy6-5oq-4" value="" style="endArrow=none;html=1;rounded=0;entryX=0;entryY=0.5;entryDx=0;entryDy=0;exitX=1;exitY=0.5;exitDx=0;exitDy=0;fillColor=#f8cecc;strokeColor=#b85450;" parent="1" source="V1QFwFLwy4jovvy6-5oq-1" target="V1QFwFLwy4jovvy6-5oq-3" edge="1">
          <mxGeometry width="50" height="50" relative="1" as="geometry">
            <mxPoint x="390" y="380" as="sourcePoint" />
            <mxPoint x="440" y="330" as="targetPoint" />
          </mxGeometry>
        </mxCell>
        <mxCell id="V1QFwFLwy4jovvy6-5oq-15" value="#13 12v" style="edgeLabel;html=1;align=center;verticalAlign=middle;resizable=0;points=[];" parent="V1QFwFLwy4jovvy6-5oq-4" vertex="1" connectable="0">
          <mxGeometry x="-0.5839" y="2" relative="1" as="geometry">
            <mxPoint x="24" y="2" as="offset" />
          </mxGeometry>
        </mxCell>
        <mxCell id="V1QFwFLwy4jovvy6-5oq-5" value="" style="endArrow=none;html=1;rounded=0;exitX=1;exitY=0.5;exitDx=0;exitDy=0;fillColor=#f8cecc;strokeColor=#b85450;" parent="1" source="V1QFwFLwy4jovvy6-5oq-3" target="V1QFwFLwy4jovvy6-5oq-2" edge="1">
          <mxGeometry width="50" height="50" relative="1" as="geometry">
            <mxPoint x="399.08" y="348" as="sourcePoint" />
            <mxPoint x="449.08" y="298" as="targetPoint" />
          </mxGeometry>
        </mxCell>
        <mxCell id="V1QFwFLwy4jovvy6-5oq-6" value="12v" style="edgeLabel;html=1;align=center;verticalAlign=middle;resizable=0;points=[];" parent="V1QFwFLwy4jovvy6-5oq-5" vertex="1" connectable="0">
          <mxGeometry x="-0.0667" relative="1" as="geometry">
            <mxPoint as="offset" />
          </mxGeometry>
        </mxCell>
        <mxCell id="V1QFwFLwy4jovvy6-5oq-7" value="" style="pointerEvents=1;verticalLabelPosition=bottom;shadow=0;dashed=0;align=center;html=1;verticalAlign=top;shape=mxgraph.electrical.signal_sources.signal_ground;" parent="1" vertex="1">
          <mxGeometry x="-152.5" y="115" width="45" height="30" as="geometry" />
        </mxCell>
        <mxCell id="V1QFwFLwy4jovvy6-5oq-11" value="" style="shape=link;html=1;rounded=0;entryX=0.143;entryY=-0.036;entryDx=0;entryDy=0;entryPerimeter=0;shadow=0;dashed=1;exitX=0;exitY=1;exitDx=0;exitDy=0;" parent="1" source="o-LNRl5hChfJm9Mrvbxu-42" target="V1QFwFLwy4jovvy6-5oq-36" edge="1">
          <mxGeometry width="100" relative="1" as="geometry">
            <mxPoint x="60" y="190" as="sourcePoint" />
            <mxPoint x="50" y="220" as="targetPoint" />
          </mxGeometry>
        </mxCell>
        <mxCell id="V1QFwFLwy4jovvy6-5oq-12" value="Injectors" style="edgeLabel;html=1;align=center;verticalAlign=middle;resizable=0;points=[];" parent="V1QFwFLwy4jovvy6-5oq-11" vertex="1" connectable="0">
          <mxGeometry x="-0.0796" relative="1" as="geometry">
            <mxPoint y="2" as="offset" />
          </mxGeometry>
        </mxCell>
        <mxCell id="V1QFwFLwy4jovvy6-5oq-13" value="" style="endArrow=none;html=1;rounded=0;entryX=0.775;entryY=0.74;entryDx=0;entryDy=0;entryPerimeter=0;exitX=0.043;exitY=0.374;exitDx=0;exitDy=0;exitPerimeter=0;" parent="1" source="o-LNRl5hChfJm9Mrvbxu-42" target="V1QFwFLwy4jovvy6-5oq-7" edge="1">
          <mxGeometry width="50" height="50" relative="1" as="geometry">
            <mxPoint x="30" y="180" as="sourcePoint" />
            <mxPoint x="290" y="130" as="targetPoint" />
          </mxGeometry>
        </mxCell>
        <mxCell id="V1QFwFLwy4jovvy6-5oq-14" value="#12" style="edgeLabel;html=1;align=center;verticalAlign=middle;resizable=0;points=[];" parent="V1QFwFLwy4jovvy6-5oq-13" vertex="1" connectable="0">
          <mxGeometry x="0.0169" relative="1" as="geometry">
            <mxPoint as="offset" />
          </mxGeometry>
        </mxCell>
        <mxCell id="V1QFwFLwy4jovvy6-5oq-17" value="1" style="shape=card;whiteSpace=wrap;html=1;" parent="1" vertex="1">
          <mxGeometry x="-191.25" y="377.11" width="10" height="50" as="geometry" />
        </mxCell>
        <mxCell id="V1QFwFLwy4jovvy6-5oq-19" value="2" style="shape=card;whiteSpace=wrap;html=1;" parent="1" vertex="1">
          <mxGeometry x="-171.25" y="377.11" width="10" height="50" as="geometry" />
        </mxCell>
        <mxCell id="V1QFwFLwy4jovvy6-5oq-20" value="3" style="shape=card;whiteSpace=wrap;html=1;" parent="1" vertex="1">
          <mxGeometry x="-133.75" y="377.11" width="10" height="50" as="geometry" />
        </mxCell>
        <mxCell id="V1QFwFLwy4jovvy6-5oq-21" value="4" style="shape=card;whiteSpace=wrap;html=1;" parent="1" vertex="1">
          <mxGeometry x="-112.5" y="377.11" width="10" height="50" as="geometry" />
        </mxCell>
        <mxCell id="V1QFwFLwy4jovvy6-5oq-22" value="5" style="shape=card;whiteSpace=wrap;html=1;" parent="1" vertex="1">
          <mxGeometry x="-72.5" y="377.11" width="10" height="50" as="geometry" />
        </mxCell>
        <mxCell id="V1QFwFLwy4jovvy6-5oq-23" value="6" style="shape=card;whiteSpace=wrap;html=1;" parent="1" vertex="1">
          <mxGeometry x="-50" y="377.11" width="10" height="50" as="geometry" />
        </mxCell>
        <mxCell id="V1QFwFLwy4jovvy6-5oq-24" value="" style="endArrow=none;html=1;rounded=0;entryX=0;entryY=0;entryDx=5;entryDy=5;entryPerimeter=0;fillColor=#fff2cc;strokeColor=#d6b656;" parent="1" source="V1QFwFLwy4jovvy6-5oq-26" target="V1QFwFLwy4jovvy6-5oq-17" edge="1">
          <mxGeometry width="50" height="50" relative="1" as="geometry">
            <mxPoint x="-130" y="307.11" as="sourcePoint" />
            <mxPoint x="130" y="217.11" as="targetPoint" />
          </mxGeometry>
        </mxCell>
        <mxCell id="V1QFwFLwy4jovvy6-5oq-26" value="#1" style="text;html=1;align=center;verticalAlign=middle;resizable=0;points=[];autosize=1;strokeColor=none;fillColor=none;" parent="1" vertex="1">
          <mxGeometry x="-191.25" y="287.11" width="40" height="30" as="geometry" />
        </mxCell>
        <mxCell id="V1QFwFLwy4jovvy6-5oq-27" value="" style="endArrow=none;html=1;rounded=0;fillColor=#dae8fc;strokeColor=#6c8ebf;entryX=0;entryY=0;entryDx=5;entryDy=5;entryPerimeter=0;" parent="1" source="V1QFwFLwy4jovvy6-5oq-29" target="V1QFwFLwy4jovvy6-5oq-19" edge="1">
          <mxGeometry width="50" height="50" relative="1" as="geometry">
            <mxPoint x="-107.5" y="307.11" as="sourcePoint" />
            <mxPoint x="-112.5" y="352.11" as="targetPoint" />
          </mxGeometry>
        </mxCell>
        <mxCell id="V1QFwFLwy4jovvy6-5oq-29" value="#2" style="text;html=1;align=center;verticalAlign=middle;resizable=0;points=[];autosize=1;strokeColor=none;fillColor=none;" parent="1" vertex="1">
          <mxGeometry x="-160" y="287.11" width="40" height="30" as="geometry" />
        </mxCell>
        <mxCell id="V1QFwFLwy4jovvy6-5oq-30" value="#3" style="text;html=1;align=center;verticalAlign=middle;resizable=0;points=[];autosize=1;strokeColor=none;fillColor=none;" parent="1" vertex="1">
          <mxGeometry x="-131.25" y="287.11" width="40" height="30" as="geometry" />
        </mxCell>
        <mxCell id="V1QFwFLwy4jovvy6-5oq-31" value="" style="endArrow=none;html=1;rounded=0;entryX=0;entryY=0;entryDx=5;entryDy=5;entryPerimeter=0;fillColor=#d5e8d4;strokeColor=#82b366;" parent="1" source="V1QFwFLwy4jovvy6-5oq-30" target="V1QFwFLwy4jovvy6-5oq-20" edge="1">
          <mxGeometry width="50" height="50" relative="1" as="geometry">
            <mxPoint x="80" y="247.11" as="sourcePoint" />
            <mxPoint x="130" y="197.11" as="targetPoint" />
          </mxGeometry>
        </mxCell>
        <mxCell id="V1QFwFLwy4jovvy6-5oq-33" value="" style="endArrow=none;html=1;rounded=0;exitX=1;exitY=0;exitDx=0;exitDy=0;exitPerimeter=0;fillColor=#fff2cc;strokeColor=#d6b656;" parent="1" source="V1QFwFLwy4jovvy6-5oq-23" edge="1">
          <mxGeometry width="50" height="50" relative="1" as="geometry">
            <mxPoint x="80" y="247.11" as="sourcePoint" />
            <mxPoint x="-170" y="307.11" as="targetPoint" />
          </mxGeometry>
        </mxCell>
        <mxCell id="V1QFwFLwy4jovvy6-5oq-35" value="" style="endArrow=none;html=1;rounded=0;entryX=0;entryY=0;entryDx=5;entryDy=5;entryPerimeter=0;fillColor=#d5e8d4;strokeColor=#82b366;" parent="1" source="V1QFwFLwy4jovvy6-5oq-30" target="V1QFwFLwy4jovvy6-5oq-21" edge="1">
          <mxGeometry width="50" height="50" relative="1" as="geometry">
            <mxPoint x="80" y="247.11" as="sourcePoint" />
            <mxPoint x="130" y="197.11" as="targetPoint" />
          </mxGeometry>
        </mxCell>
        <mxCell id="V1QFwFLwy4jovvy6-5oq-36" value="#4" style="text;html=1;align=center;verticalAlign=middle;resizable=0;points=[];autosize=1;strokeColor=none;fillColor=none;" parent="1" vertex="1">
          <mxGeometry x="-102.5" y="287.11" width="40" height="30" as="geometry" />
        </mxCell>
        <mxCell id="V1QFwFLwy4jovvy6-5oq-37" value="" style="endArrow=none;html=1;rounded=0;dashed=1;dashPattern=1 2;" parent="1" target="V1QFwFLwy4jovvy6-5oq-36" edge="1">
          <mxGeometry width="50" height="50" relative="1" as="geometry">
            <mxPoint x="-130" y="377.11" as="sourcePoint" />
            <mxPoint x="130" y="197.11" as="targetPoint" />
          </mxGeometry>
        </mxCell>
        <mxCell id="V1QFwFLwy4jovvy6-5oq-38" value="" style="endArrow=none;html=1;rounded=0;dashed=1;dashPattern=1 2;" parent="1" target="V1QFwFLwy4jovvy6-5oq-36" edge="1">
          <mxGeometry width="50" height="50" relative="1" as="geometry">
            <mxPoint x="-110" y="377.11" as="sourcePoint" />
            <mxPoint x="130" y="197.11" as="targetPoint" />
          </mxGeometry>
        </mxCell>
        <mxCell id="V1QFwFLwy4jovvy6-5oq-39" value="#5" style="text;html=1;align=center;verticalAlign=middle;resizable=0;points=[];autosize=1;strokeColor=none;fillColor=none;" parent="1" vertex="1">
          <mxGeometry x="-72.5" y="287.11" width="40" height="30" as="geometry" />
        </mxCell>
        <mxCell id="V1QFwFLwy4jovvy6-5oq-40" value="" style="endArrow=none;html=1;rounded=0;fillColor=#f8cecc;strokeColor=#b85450;exitX=1;exitY=0;exitDx=0;exitDy=0;exitPerimeter=0;" parent="1" source="V1QFwFLwy4jovvy6-5oq-19" edge="1">
          <mxGeometry width="50" height="50" relative="1" as="geometry">
            <mxPoint x="-150" y="377.11" as="sourcePoint" />
            <mxPoint x="-50" y="317.11" as="targetPoint" />
          </mxGeometry>
        </mxCell>
        <mxCell id="V1QFwFLwy4jovvy6-5oq-41" value="" style="endArrow=none;html=1;rounded=0;fillColor=#f8cecc;strokeColor=#b85450;exitX=0;exitY=0;exitDx=5;exitDy=5;exitPerimeter=0;" parent="1" source="V1QFwFLwy4jovvy6-5oq-22" target="V1QFwFLwy4jovvy6-5oq-39" edge="1">
          <mxGeometry width="50" height="50" relative="1" as="geometry">
            <mxPoint x="-90" y="377.11" as="sourcePoint" />
            <mxPoint x="130" y="197.11" as="targetPoint" />
          </mxGeometry>
        </mxCell>
        <mxCell id="V1QFwFLwy4jovvy6-5oq-42" value="#6" style="text;html=1;align=center;verticalAlign=middle;resizable=0;points=[];autosize=1;strokeColor=none;fillColor=none;" parent="1" vertex="1">
          <mxGeometry x="-32.5" y="287.11" width="40" height="30" as="geometry" />
        </mxCell>
        <mxCell id="V1QFwFLwy4jovvy6-5oq-43" value="" style="endArrow=none;html=1;rounded=0;exitX=1;exitY=0;exitDx=0;exitDy=0;exitPerimeter=0;" parent="1" source="V1QFwFLwy4jovvy6-5oq-17" edge="1">
          <mxGeometry width="50" height="50" relative="1" as="geometry">
            <mxPoint x="-170" y="377.11" as="sourcePoint" />
            <mxPoint x="-20" y="317.11" as="targetPoint" />
          </mxGeometry>
        </mxCell>
        <mxCell id="V1QFwFLwy4jovvy6-5oq-44" value="" style="endArrow=none;html=1;rounded=0;exitX=1;exitY=0;exitDx=0;exitDy=0;exitPerimeter=0;" parent="1" source="V1QFwFLwy4jovvy6-5oq-23" target="V1QFwFLwy4jovvy6-5oq-42" edge="1">
          <mxGeometry width="50" height="50" relative="1" as="geometry">
            <mxPoint x="-50" y="377.11" as="sourcePoint" />
            <mxPoint x="130" y="197.11" as="targetPoint" />
          </mxGeometry>
        </mxCell>
        <mxCell id="V1QFwFLwy4jovvy6-5oq-46" value="Double signal wires to each injector" style="text;html=1;align=center;verticalAlign=middle;whiteSpace=wrap;rounded=0;" parent="1" vertex="1">
          <mxGeometry x="-210" y="437.11" width="180" height="30" as="geometry" />
        </mxCell>
        <mxCell id="V1QFwFLwy4jovvy6-5oq-47" value="" style="shape=link;html=1;rounded=0;dashed=1;exitX=0.861;exitY=0.973;exitDx=0;exitDy=0;exitPerimeter=0;" parent="1" source="o-LNRl5hChfJm9Mrvbxu-42" edge="1">
          <mxGeometry width="100" relative="1" as="geometry">
            <mxPoint x="80" y="190" as="sourcePoint" />
            <mxPoint x="220" y="280" as="targetPoint" />
          </mxGeometry>
        </mxCell>
        <mxCell id="V1QFwFLwy4jovvy6-5oq-48" value="Sensors" style="edgeLabel;html=1;align=center;verticalAlign=middle;resizable=0;points=[];" parent="V1QFwFLwy4jovvy6-5oq-47" vertex="1" connectable="0">
          <mxGeometry x="0.0134" relative="1" as="geometry">
            <mxPoint as="offset" />
          </mxGeometry>
        </mxCell>
        <mxCell id="V1QFwFLwy4jovvy6-5oq-49" value="#19" style="text;html=1;align=center;verticalAlign=middle;resizable=0;points=[];autosize=1;strokeColor=none;fillColor=none;" parent="1" vertex="1">
          <mxGeometry x="180.00000000000003" y="284.11" width="40" height="30" as="geometry" />
        </mxCell>
        <mxCell id="V1QFwFLwy4jovvy6-5oq-52" value="Coolant temp" style="shape=hexagon;perimeter=hexagonPerimeter2;whiteSpace=wrap;html=1;fixedSize=1;" parent="1" vertex="1">
          <mxGeometry x="170.00000000000003" y="346.64" width="60" height="40" as="geometry" />
        </mxCell>
        <mxCell id="V1QFwFLwy4jovvy6-5oq-53" value="" style="endArrow=none;html=1;rounded=0;exitX=0.5;exitY=0;exitDx=0;exitDy=0;fillColor=#dae8fc;strokeColor=#6c8ebf;" parent="1" source="V1QFwFLwy4jovvy6-5oq-52" target="V1QFwFLwy4jovvy6-5oq-49" edge="1">
          <mxGeometry width="50" height="50" relative="1" as="geometry">
            <mxPoint x="250.00000000000003" y="306.64" as="sourcePoint" />
            <mxPoint x="300" y="256.64" as="targetPoint" />
          </mxGeometry>
        </mxCell>
        <mxCell id="V1QFwFLwy4jovvy6-5oq-54" value="#20" style="text;html=1;align=center;verticalAlign=middle;resizable=0;points=[];autosize=1;strokeColor=none;fillColor=none;" parent="1" vertex="1">
          <mxGeometry x="207.04000000000002" y="284.11" width="40" height="30" as="geometry" />
        </mxCell>
        <mxCell id="V1QFwFLwy4jovvy6-5oq-55" value="Inlet temp" style="shape=hexagon;perimeter=hexagonPerimeter2;whiteSpace=wrap;html=1;fixedSize=1;" parent="1" vertex="1">
          <mxGeometry x="197.04000000000002" y="397.11" width="60" height="40" as="geometry" />
        </mxCell>
        <mxCell id="V1QFwFLwy4jovvy6-5oq-56" value="" style="endArrow=none;html=1;rounded=0;exitX=0.5;exitY=0;exitDx=0;exitDy=0;fillColor=#f5f5f5;strokeColor=#666666;" parent="1" source="V1QFwFLwy4jovvy6-5oq-55" edge="1">
          <mxGeometry width="50" height="50" relative="1" as="geometry">
            <mxPoint x="277.04" y="307.11" as="sourcePoint" />
            <mxPoint x="227.04000000000002" y="314.11" as="targetPoint" />
          </mxGeometry>
        </mxCell>
        <mxCell id="V1QFwFLwy4jovvy6-5oq-58" value="" style="endArrow=none;html=1;rounded=0;entryX=0;entryY=0;entryDx=5;entryDy=5;entryPerimeter=0;fillColor=#dae8fc;strokeColor=#6c8ebf;" parent="1" edge="1">
          <mxGeometry width="50" height="50" relative="1" as="geometry">
            <mxPoint x="-62.5" y="379.64" as="sourcePoint" />
            <mxPoint x="-140" y="317.11" as="targetPoint" />
          </mxGeometry>
        </mxCell>
        <mxCell id="V1QFwFLwy4jovvy6-5oq-60" value="#21" style="text;html=1;align=center;verticalAlign=middle;resizable=0;points=[];autosize=1;strokeColor=none;fillColor=none;" parent="1" vertex="1">
          <mxGeometry x="479.08" y="287.11" width="40" height="30" as="geometry" />
        </mxCell>
        <mxCell id="V1QFwFLwy4jovvy6-5oq-61" value="Lambda o2" style="shape=hexagon;perimeter=hexagonPerimeter2;whiteSpace=wrap;html=1;fixedSize=1;" parent="1" vertex="1">
          <mxGeometry x="470" y="397.11" width="60" height="40" as="geometry" />
        </mxCell>
        <mxCell id="V1QFwFLwy4jovvy6-5oq-62" value="" style="endArrow=none;html=1;rounded=0;exitX=0.5;exitY=0;exitDx=0;exitDy=0;fillColor=#dae8fc;strokeColor=#6c8ebf;entryX=0.484;entryY=1;entryDx=0;entryDy=0;entryPerimeter=0;" parent="1" source="V1QFwFLwy4jovvy6-5oq-61" edge="1">
          <mxGeometry width="50" height="50" relative="1" as="geometry">
            <mxPoint x="319.53999999999996" y="307.11" as="sourcePoint" />
            <mxPoint x="499.3599999999997" y="317.1100000000001" as="targetPoint" />
          </mxGeometry>
        </mxCell>
        <mxCell id="V1QFwFLwy4jovvy6-5oq-64" value="#22" style="text;html=1;align=center;verticalAlign=middle;resizable=0;points=[];autosize=1;strokeColor=none;fillColor=none;" parent="1" vertex="1">
          <mxGeometry x="257.04" y="284.11" width="40" height="30" as="geometry" />
        </mxCell>
        <mxCell id="V1QFwFLwy4jovvy6-5oq-65" value="TPS signal" style="shape=hexagon;perimeter=hexagonPerimeter2;whiteSpace=wrap;html=1;fixedSize=1;" parent="1" vertex="1">
          <mxGeometry x="257.04" y="397.11" width="60" height="40" as="geometry" />
        </mxCell>
        <mxCell id="V1QFwFLwy4jovvy6-5oq-67" value="" style="endArrow=none;html=1;rounded=0;entryX=0.473;entryY=0.956;entryDx=0;entryDy=0;entryPerimeter=0;exitX=0.5;exitY=0;exitDx=0;exitDy=0;" parent="1" source="V1QFwFLwy4jovvy6-5oq-65" edge="1">
          <mxGeometry width="50" height="50" relative="1" as="geometry">
            <mxPoint x="227.04000000000002" y="306.64" as="sourcePoint" />
            <mxPoint x="285.96000000000004" y="312.7900000000002" as="targetPoint" />
          </mxGeometry>
        </mxCell>
        <mxCell id="V1QFwFLwy4jovvy6-5oq-69" value="#23" style="text;html=1;align=center;verticalAlign=middle;resizable=0;points=[];autosize=1;strokeColor=none;fillColor=none;" parent="1" vertex="1">
          <mxGeometry x="307.03999999999996" y="284.11" width="40" height="30" as="geometry" />
        </mxCell>
        <mxCell id="V1QFwFLwy4jovvy6-5oq-70" value="CPS ground" style="shape=hexagon;perimeter=hexagonPerimeter2;whiteSpace=wrap;html=1;fixedSize=1;" parent="1" vertex="1">
          <mxGeometry x="297.03999999999996" y="346.64" width="60" height="40" as="geometry" />
        </mxCell>
        <mxCell id="V1QFwFLwy4jovvy6-5oq-72" value="" style="shape=link;html=1;rounded=0;width=-2.1428571428571423;fillColor=#f5f5f5;strokeColor=#666666;" parent="1" target="V1QFwFLwy4jovvy6-5oq-69" edge="1">
          <mxGeometry width="100" relative="1" as="geometry">
            <mxPoint x="327.03999999999996" y="346.64" as="sourcePoint" />
            <mxPoint x="387.03999999999996" y="326.64" as="targetPoint" />
          </mxGeometry>
        </mxCell>
        <mxCell id="V1QFwFLwy4jovvy6-5oq-73" value="#25" style="text;html=1;align=center;verticalAlign=middle;resizable=0;points=[];autosize=1;strokeColor=none;fillColor=none;" parent="1" vertex="1">
          <mxGeometry x="391.1199999999999" y="284.11" width="40" height="30" as="geometry" />
        </mxCell>
        <mxCell id="V1QFwFLwy4jovvy6-5oq-74" value="CPS signal" style="shape=hexagon;perimeter=hexagonPerimeter2;whiteSpace=wrap;html=1;fixedSize=1;" parent="1" vertex="1">
          <mxGeometry x="381.1199999999999" y="346.64" width="60" height="40" as="geometry" />
        </mxCell>
        <mxCell id="V1QFwFLwy4jovvy6-5oq-75" value="" style="shape=link;html=1;rounded=0;width=-2.1428571428571423;fillColor=#f5f5f5;strokeColor=#666666;exitX=0.5;exitY=0;exitDx=0;exitDy=0;" parent="1" source="V1QFwFLwy4jovvy6-5oq-74" target="V1QFwFLwy4jovvy6-5oq-73" edge="1">
          <mxGeometry width="100" relative="1" as="geometry">
            <mxPoint x="411.1199999999999" y="346.64" as="sourcePoint" />
            <mxPoint x="471.1199999999999" y="326.64" as="targetPoint" />
          </mxGeometry>
        </mxCell>
        <mxCell id="V1QFwFLwy4jovvy6-5oq-76" value="" style="endArrow=none;html=1;rounded=0;fillColor=#fff2cc;strokeColor=#d6b656;" parent="1" edge="1">
          <mxGeometry width="50" height="50" relative="1" as="geometry">
            <mxPoint x="-146.25" y="509.64" as="sourcePoint" />
            <mxPoint x="-66.25" y="509.64" as="targetPoint" />
          </mxGeometry>
        </mxCell>
        <mxCell id="V1QFwFLwy4jovvy6-5oq-77" value="Yellow" style="edgeLabel;html=1;align=center;verticalAlign=middle;resizable=0;points=[];" parent="V1QFwFLwy4jovvy6-5oq-76" vertex="1" connectable="0">
          <mxGeometry x="0.0357" relative="1" as="geometry">
            <mxPoint as="offset" />
          </mxGeometry>
        </mxCell>
        <mxCell id="V1QFwFLwy4jovvy6-5oq-78" value="" style="endArrow=none;html=1;rounded=0;fillColor=#dae8fc;strokeColor=#6c8ebf;" parent="1" edge="1">
          <mxGeometry width="50" height="50" relative="1" as="geometry">
            <mxPoint x="-146.25" y="529.64" as="sourcePoint" />
            <mxPoint x="-66.25" y="529.64" as="targetPoint" />
          </mxGeometry>
        </mxCell>
        <mxCell id="V1QFwFLwy4jovvy6-5oq-79" value="Blue" style="edgeLabel;html=1;align=center;verticalAlign=middle;resizable=0;points=[];" parent="V1QFwFLwy4jovvy6-5oq-78" vertex="1" connectable="0">
          <mxGeometry x="0.0357" relative="1" as="geometry">
            <mxPoint as="offset" />
          </mxGeometry>
        </mxCell>
        <mxCell id="V1QFwFLwy4jovvy6-5oq-80" value="" style="endArrow=none;html=1;rounded=0;fillColor=#d5e8d4;strokeColor=#82b366;" parent="1" edge="1">
          <mxGeometry width="50" height="50" relative="1" as="geometry">
            <mxPoint x="-144.75" y="549.64" as="sourcePoint" />
            <mxPoint x="-64.75" y="549.64" as="targetPoint" />
          </mxGeometry>
        </mxCell>
        <mxCell id="V1QFwFLwy4jovvy6-5oq-81" value="Green" style="edgeLabel;html=1;align=center;verticalAlign=middle;resizable=0;points=[];" parent="V1QFwFLwy4jovvy6-5oq-80" vertex="1" connectable="0">
          <mxGeometry x="0.0357" relative="1" as="geometry">
            <mxPoint as="offset" />
          </mxGeometry>
        </mxCell>
        <mxCell id="V1QFwFLwy4jovvy6-5oq-82" value="" style="endArrow=none;html=1;rounded=0;fillColor=#f5f5f5;strokeColor=#666666;dashed=1;dashPattern=1 2;" parent="1" edge="1">
          <mxGeometry width="50" height="50" relative="1" as="geometry">
            <mxPoint x="-144.75" y="569.64" as="sourcePoint" />
            <mxPoint x="-64.75" y="569.64" as="targetPoint" />
          </mxGeometry>
        </mxCell>
        <mxCell id="V1QFwFLwy4jovvy6-5oq-83" value="White" style="edgeLabel;html=1;align=center;verticalAlign=middle;resizable=0;points=[];" parent="V1QFwFLwy4jovvy6-5oq-82" vertex="1" connectable="0">
          <mxGeometry x="0.0357" relative="1" as="geometry">
            <mxPoint as="offset" />
          </mxGeometry>
        </mxCell>
        <mxCell id="V1QFwFLwy4jovvy6-5oq-84" value="" style="endArrow=none;html=1;rounded=0;fillColor=#f8cecc;strokeColor=#b85450;" parent="1" edge="1">
          <mxGeometry width="50" height="50" relative="1" as="geometry">
            <mxPoint x="-55" y="509.64" as="sourcePoint" />
            <mxPoint x="25" y="509.64" as="targetPoint" />
          </mxGeometry>
        </mxCell>
        <mxCell id="V1QFwFLwy4jovvy6-5oq-85" value="Red" style="edgeLabel;html=1;align=center;verticalAlign=middle;resizable=0;points=[];" parent="V1QFwFLwy4jovvy6-5oq-84" vertex="1" connectable="0">
          <mxGeometry x="0.0357" relative="1" as="geometry">
            <mxPoint as="offset" />
          </mxGeometry>
        </mxCell>
        <mxCell id="V1QFwFLwy4jovvy6-5oq-86" value="" style="endArrow=none;html=1;rounded=0;" parent="1" edge="1">
          <mxGeometry width="50" height="50" relative="1" as="geometry">
            <mxPoint x="-55" y="529.64" as="sourcePoint" />
            <mxPoint x="25" y="529.64" as="targetPoint" />
          </mxGeometry>
        </mxCell>
        <mxCell id="V1QFwFLwy4jovvy6-5oq-87" value="Black" style="edgeLabel;html=1;align=center;verticalAlign=middle;resizable=0;points=[];" parent="V1QFwFLwy4jovvy6-5oq-86" vertex="1" connectable="0">
          <mxGeometry x="0.0357" relative="1" as="geometry">
            <mxPoint as="offset" />
          </mxGeometry>
        </mxCell>
        <mxCell id="V1QFwFLwy4jovvy6-5oq-91" value="" style="shape=link;html=1;rounded=0;width=-2.1428571428571423;fillColor=#f5f5f5;strokeColor=#666666;" parent="1" edge="1">
          <mxGeometry width="100" relative="1" as="geometry">
            <mxPoint x="25" y="549.64" as="sourcePoint" />
            <mxPoint x="-55" y="549.64" as="targetPoint" />
          </mxGeometry>
        </mxCell>
        <mxCell id="V1QFwFLwy4jovvy6-5oq-94" value="Shielded" style="edgeLabel;html=1;align=center;verticalAlign=middle;resizable=0;points=[];" parent="V1QFwFLwy4jovvy6-5oq-91" vertex="1" connectable="0">
          <mxGeometry x="0.0357" y="-2" relative="1" as="geometry">
            <mxPoint x="3" as="offset" />
          </mxGeometry>
        </mxCell>
        <mxCell id="V1QFwFLwy4jovvy6-5oq-95" value="Ground" style="text;html=1;align=center;verticalAlign=middle;resizable=0;points=[];autosize=1;strokeColor=none;fillColor=none;" parent="1" vertex="1">
          <mxGeometry x="-160" y="160" width="60" height="30" as="geometry" />
        </mxCell>
        <mxCell id="V1QFwFLwy4jovvy6-5oq-97" value="Wire key:" style="text;html=1;align=center;verticalAlign=middle;resizable=0;points=[];autosize=1;strokeColor=none;fillColor=none;" parent="1" vertex="1">
          <mxGeometry x="-210" y="497.64" width="70" height="30" as="geometry" />
        </mxCell>
        <mxCell id="V1QFwFLwy4jovvy6-5oq-98" value="&lt;b&gt;Wiring&lt;/b&gt;" style="text;html=1;align=center;verticalAlign=middle;resizable=0;points=[];autosize=1;strokeColor=default;fillColor=none;" parent="1" vertex="1">
          <mxGeometry x="35" y="28" width="60" height="30" as="geometry" />
        </mxCell>
        <mxCell id="V1QFwFLwy4jovvy6-5oq-99" value="" style="shape=link;html=1;rounded=0;dashed=1;entryX=0.256;entryY=-0.104;entryDx=0;entryDy=0;entryPerimeter=0;exitX=-0.024;exitY=0.612;exitDx=0;exitDy=0;exitPerimeter=0;" parent="1" target="V1QFwFLwy4jovvy6-5oq-111" edge="1" source="o-LNRl5hChfJm9Mrvbxu-42">
          <mxGeometry width="100" relative="1" as="geometry">
            <mxPoint x="50" y="180" as="sourcePoint" />
            <mxPoint x="390" y="200" as="targetPoint" />
          </mxGeometry>
        </mxCell>
        <mxCell id="V1QFwFLwy4jovvy6-5oq-100" value="Spark coils" style="edgeLabel;html=1;align=center;verticalAlign=middle;resizable=0;points=[];" parent="V1QFwFLwy4jovvy6-5oq-99" vertex="1" connectable="0">
          <mxGeometry x="0.0134" relative="1" as="geometry">
            <mxPoint x="-1" as="offset" />
          </mxGeometry>
        </mxCell>
        <mxCell id="V1QFwFLwy4jovvy6-5oq-101" value="" style="rounded=1;whiteSpace=wrap;html=1;" parent="1" vertex="1">
          <mxGeometry x="-449.99999999999994" y="287.11" width="210.92" height="182.53" as="geometry" />
        </mxCell>
        <mxCell id="V1QFwFLwy4jovvy6-5oq-102" value="1" style="shape=card;whiteSpace=wrap;html=1;" parent="1" vertex="1">
          <mxGeometry x="-439.07999999999987" y="377.11" width="10" height="50" as="geometry" />
        </mxCell>
        <mxCell id="V1QFwFLwy4jovvy6-5oq-103" value="" style="endArrow=none;html=1;rounded=0;entryX=0;entryY=0;entryDx=5;entryDy=5;entryPerimeter=0;fillColor=#fff2cc;strokeColor=#d6b656;" parent="1" source="V1QFwFLwy4jovvy6-5oq-104" target="V1QFwFLwy4jovvy6-5oq-102" edge="1">
          <mxGeometry width="50" height="50" relative="1" as="geometry">
            <mxPoint x="-377.82999999999987" y="307.11" as="sourcePoint" />
            <mxPoint x="-117.83" y="217.11" as="targetPoint" />
          </mxGeometry>
        </mxCell>
        <mxCell id="V1QFwFLwy4jovvy6-5oq-104" value="#7" style="text;html=1;align=center;verticalAlign=middle;resizable=0;points=[];autosize=1;strokeColor=none;fillColor=none;" parent="1" vertex="1">
          <mxGeometry x="-439.07999999999987" y="287.11" width="40" height="30" as="geometry" />
        </mxCell>
        <mxCell id="V1QFwFLwy4jovvy6-5oq-105" value="2" style="shape=card;whiteSpace=wrap;html=1;" parent="1" vertex="1">
          <mxGeometry x="-419.07999999999987" y="377.11" width="10" height="50" as="geometry" />
        </mxCell>
        <mxCell id="V1QFwFLwy4jovvy6-5oq-106" value="3" style="shape=card;whiteSpace=wrap;html=1;" parent="1" vertex="1">
          <mxGeometry x="-381.57999999999987" y="377.11" width="10" height="50" as="geometry" />
        </mxCell>
        <mxCell id="V1QFwFLwy4jovvy6-5oq-107" value="4" style="shape=card;whiteSpace=wrap;html=1;" parent="1" vertex="1">
          <mxGeometry x="-360.32999999999987" y="377.11" width="10" height="50" as="geometry" />
        </mxCell>
        <mxCell id="V1QFwFLwy4jovvy6-5oq-108" value="5" style="shape=card;whiteSpace=wrap;html=1;" parent="1" vertex="1">
          <mxGeometry x="-320.33" y="377.11" width="10" height="50" as="geometry" />
        </mxCell>
        <mxCell id="V1QFwFLwy4jovvy6-5oq-109" value="6" style="shape=card;whiteSpace=wrap;html=1;" parent="1" vertex="1">
          <mxGeometry x="-297.83" y="377.11" width="10" height="50" as="geometry" />
        </mxCell>
        <mxCell id="V1QFwFLwy4jovvy6-5oq-110" value="" style="endArrow=none;html=1;rounded=0;entryX=0;entryY=0;entryDx=5;entryDy=5;entryPerimeter=0;fillColor=#fff2cc;strokeColor=#d6b656;exitX=0.427;exitY=0.989;exitDx=0;exitDy=0;exitPerimeter=0;" parent="1" source="V1QFwFLwy4jovvy6-5oq-104" target="V1QFwFLwy4jovvy6-5oq-109" edge="1">
          <mxGeometry width="50" height="50" relative="1" as="geometry">
            <mxPoint x="-412.07999999999987" y="326.64" as="sourcePoint" />
            <mxPoint x="-424.07999999999987" y="391.64" as="targetPoint" />
          </mxGeometry>
        </mxCell>
        <mxCell id="V1QFwFLwy4jovvy6-5oq-111" value="#33" style="text;html=1;align=center;verticalAlign=middle;resizable=0;points=[];autosize=1;strokeColor=none;fillColor=none;" parent="1" vertex="1">
          <mxGeometry x="-390.32999999999987" y="287.11" width="40" height="30" as="geometry" />
        </mxCell>
        <mxCell id="V1QFwFLwy4jovvy6-5oq-112" value="" style="endArrow=none;html=1;rounded=0;exitX=0;exitY=0;exitDx=5;exitDy=5;exitPerimeter=0;fillColor=#d5e8d4;strokeColor=#82b366;" parent="1" source="V1QFwFLwy4jovvy6-5oq-106" target="V1QFwFLwy4jovvy6-5oq-111" edge="1">
          <mxGeometry width="50" height="50" relative="1" as="geometry">
            <mxPoint x="-619.08" y="349.64" as="sourcePoint" />
            <mxPoint x="-569.0799999999999" y="299.64" as="targetPoint" />
          </mxGeometry>
        </mxCell>
        <mxCell id="V1QFwFLwy4jovvy6-5oq-113" value="" style="endArrow=none;html=1;rounded=0;exitX=0;exitY=0;exitDx=5;exitDy=5;exitPerimeter=0;fillColor=#d5e8d4;strokeColor=#82b366;" parent="1" source="V1QFwFLwy4jovvy6-5oq-107" target="V1QFwFLwy4jovvy6-5oq-111" edge="1">
          <mxGeometry width="50" height="50" relative="1" as="geometry">
            <mxPoint x="-366.07999999999987" y="391.64" as="sourcePoint" />
            <mxPoint x="-379.07999999999987" y="326.64" as="targetPoint" />
          </mxGeometry>
        </mxCell>
        <mxCell id="V1QFwFLwy4jovvy6-5oq-114" value="#34" style="text;html=1;align=center;verticalAlign=middle;resizable=0;points=[];autosize=1;strokeColor=none;fillColor=none;" parent="1" vertex="1">
          <mxGeometry x="-339.99999999999994" y="287.11" width="40" height="30" as="geometry" />
        </mxCell>
        <mxCell id="V1QFwFLwy4jovvy6-5oq-115" value="" style="endArrow=none;html=1;rounded=0;exitX=1;exitY=0;exitDx=0;exitDy=0;exitPerimeter=0;fillColor=#dae8fc;strokeColor=#6c8ebf;" parent="1" source="V1QFwFLwy4jovvy6-5oq-105" target="V1QFwFLwy4jovvy6-5oq-114" edge="1">
          <mxGeometry width="50" height="50" relative="1" as="geometry">
            <mxPoint x="-619.08" y="349.64" as="sourcePoint" />
            <mxPoint x="-569.0799999999999" y="299.64" as="targetPoint" />
          </mxGeometry>
        </mxCell>
        <mxCell id="V1QFwFLwy4jovvy6-5oq-116" value="" style="endArrow=none;html=1;rounded=0;exitX=0;exitY=0;exitDx=5;exitDy=5;exitPerimeter=0;fillColor=#dae8fc;strokeColor=#6c8ebf;" parent="1" source="V1QFwFLwy4jovvy6-5oq-108" target="V1QFwFLwy4jovvy6-5oq-114" edge="1">
          <mxGeometry width="50" height="50" relative="1" as="geometry">
            <mxPoint x="-399.07999999999987" y="386.64" as="sourcePoint" />
            <mxPoint x="-361.07999999999987" y="326.64" as="targetPoint" />
          </mxGeometry>
        </mxCell>
        <mxCell id="o-LNRl5hChfJm9Mrvbxu-1" value="#24" style="text;html=1;align=center;verticalAlign=middle;resizable=0;points=[];autosize=1;strokeColor=none;fillColor=none;" vertex="1" parent="1">
          <mxGeometry x="351.03999999999996" y="284.11" width="40" height="30" as="geometry" />
        </mxCell>
        <mxCell id="o-LNRl5hChfJm9Mrvbxu-2" value="CPS&amp;nbsp;&lt;div&gt;shld gnd&lt;/div&gt;" style="shape=hexagon;perimeter=hexagonPerimeter2;whiteSpace=wrap;html=1;fixedSize=1;" vertex="1" parent="1">
          <mxGeometry x="341.03999999999996" y="397.11" width="60" height="40" as="geometry" />
        </mxCell>
        <mxCell id="o-LNRl5hChfJm9Mrvbxu-4" value="#8" style="text;html=1;align=center;verticalAlign=middle;resizable=0;points=[];autosize=1;strokeColor=none;fillColor=none;" vertex="1" parent="1">
          <mxGeometry x="25" y="287.11" width="40" height="30" as="geometry" />
        </mxCell>
        <mxCell id="o-LNRl5hChfJm9Mrvbxu-5" value="Ground CLT IAT O2" style="shape=hexagon;perimeter=hexagonPerimeter2;whiteSpace=wrap;html=1;fixedSize=1;size=20;" vertex="1" parent="1">
          <mxGeometry x="15" y="349.64" width="60" height="60.36" as="geometry" />
        </mxCell>
        <mxCell id="o-LNRl5hChfJm9Mrvbxu-6" value="" style="endArrow=none;html=1;rounded=0;exitX=0.5;exitY=0;exitDx=0;exitDy=0;fillColor=#dae8fc;strokeColor=#6c8ebf;" edge="1" parent="1" source="o-LNRl5hChfJm9Mrvbxu-5">
          <mxGeometry width="50" height="50" relative="1" as="geometry">
            <mxPoint x="95" y="310.11" as="sourcePoint" />
            <mxPoint x="45" y="317.11" as="targetPoint" />
          </mxGeometry>
        </mxCell>
        <mxCell id="o-LNRl5hChfJm9Mrvbxu-7" value="" style="endArrow=none;html=1;rounded=0;entryX=0.473;entryY=0.956;entryDx=0;entryDy=0;entryPerimeter=0;exitX=0.5;exitY=0;exitDx=0;exitDy=0;" edge="1" parent="1">
          <mxGeometry width="50" height="50" relative="1" as="geometry">
            <mxPoint x="371.53999999999996" y="397.11" as="sourcePoint" />
            <mxPoint x="370.53999999999996" y="313.11" as="targetPoint" />
          </mxGeometry>
        </mxCell>
        <mxCell id="o-LNRl5hChfJm9Mrvbxu-8" value="#16" style="text;html=1;align=center;verticalAlign=middle;resizable=0;points=[];autosize=1;strokeColor=none;fillColor=none;" vertex="1" parent="1">
          <mxGeometry x="65" y="287.11" width="40" height="30" as="geometry" />
        </mxCell>
        <mxCell id="o-LNRl5hChfJm9Mrvbxu-9" value="Fuel&amp;nbsp;&lt;div&gt;relay&lt;/div&gt;" style="shape=hexagon;perimeter=hexagonPerimeter2;whiteSpace=wrap;html=1;fixedSize=1;" vertex="1" parent="1">
          <mxGeometry x="55" y="400.11" width="60" height="40" as="geometry" />
        </mxCell>
        <mxCell id="o-LNRl5hChfJm9Mrvbxu-10" value="" style="endArrow=none;html=1;rounded=0;exitX=0.5;exitY=0;exitDx=0;exitDy=0;fillColor=#fff2cc;strokeColor=#d6b656;" edge="1" parent="1" source="o-LNRl5hChfJm9Mrvbxu-9" target="o-LNRl5hChfJm9Mrvbxu-8">
          <mxGeometry width="50" height="50" relative="1" as="geometry">
            <mxPoint x="105" y="309.64" as="sourcePoint" />
            <mxPoint x="155" y="259.64" as="targetPoint" />
          </mxGeometry>
        </mxCell>
        <mxCell id="o-LNRl5hChfJm9Mrvbxu-11" value="" style="rounded=1;whiteSpace=wrap;html=1;" vertex="1" parent="1">
          <mxGeometry x="575" y="99.99999999999999" width="150" height="180.36" as="geometry" />
        </mxCell>
        <mxCell id="o-LNRl5hChfJm9Mrvbxu-14" value="" style="endArrow=none;html=1;rounded=0;exitX=0;exitY=0.25;exitDx=0;exitDy=0;fillColor=#dae8fc;strokeColor=#6c8ebf;entryX=1.045;entryY=0.293;entryDx=0;entryDy=0;entryPerimeter=0;" edge="1" parent="1" source="o-LNRl5hChfJm9Mrvbxu-11" target="o-LNRl5hChfJm9Mrvbxu-42">
          <mxGeometry width="50" height="50" relative="1" as="geometry">
            <mxPoint x="604.0799999999999" y="228" as="sourcePoint" />
            <mxPoint x="110" y="170" as="targetPoint" />
          </mxGeometry>
        </mxCell>
        <mxCell id="o-LNRl5hChfJm9Mrvbxu-21" value="&lt;font style=&quot;font-size: 14px;&quot;&gt;#17&amp;nbsp;&lt;/font&gt;&lt;span style=&quot;text-wrap: wrap; background-color: rgb(251, 251, 251);&quot;&gt;&lt;font style=&quot;font-size: 14px;&quot;&gt;Tacho signal&lt;/font&gt;&lt;/span&gt;" style="edgeLabel;html=1;align=center;verticalAlign=middle;resizable=0;points=[];" vertex="1" connectable="0" parent="o-LNRl5hChfJm9Mrvbxu-14">
          <mxGeometry x="0.1156" y="-2" relative="1" as="geometry">
            <mxPoint as="offset" />
          </mxGeometry>
        </mxCell>
        <mxCell id="o-LNRl5hChfJm9Mrvbxu-19" value="Dashboard PI" style="text;html=1;align=center;verticalAlign=middle;whiteSpace=wrap;rounded=0;" vertex="1" parent="1">
          <mxGeometry x="620" y="175.18" width="60" height="30" as="geometry" />
        </mxCell>
        <mxCell id="o-LNRl5hChfJm9Mrvbxu-25" value="" style="endArrow=none;html=1;rounded=0;entryX=0.022;entryY=0.092;entryDx=0;entryDy=0;exitX=1;exitY=0.75;exitDx=0;exitDy=0;shape=link;entryPerimeter=0;" edge="1" parent="1" source="V1QFwFLwy4jovvy6-5oq-1" target="o-LNRl5hChfJm9Mrvbxu-11">
          <mxGeometry width="50" height="50" relative="1" as="geometry">
            <mxPoint x="40" y="250" as="sourcePoint" />
            <mxPoint x="90" y="200" as="targetPoint" />
          </mxGeometry>
        </mxCell>
        <mxCell id="o-LNRl5hChfJm9Mrvbxu-26" value="USB" style="edgeLabel;html=1;align=center;verticalAlign=middle;resizable=0;points=[];" vertex="1" connectable="0" parent="o-LNRl5hChfJm9Mrvbxu-25">
          <mxGeometry x="-0.0927" y="-1" relative="1" as="geometry">
            <mxPoint x="-1" as="offset" />
          </mxGeometry>
        </mxCell>
        <mxCell id="o-LNRl5hChfJm9Mrvbxu-29" value="#12" style="text;html=1;align=center;verticalAlign=middle;resizable=0;points=[];autosize=1;strokeColor=none;fillColor=none;" vertex="1" parent="1">
          <mxGeometry x="100.00000000000001" y="287.11" width="40" height="30" as="geometry" />
        </mxCell>
        <mxCell id="o-LNRl5hChfJm9Mrvbxu-30" value="TPS GND" style="shape=hexagon;perimeter=hexagonPerimeter2;whiteSpace=wrap;html=1;fixedSize=1;" vertex="1" parent="1">
          <mxGeometry x="90.00000000000001" y="349.64" width="60" height="40" as="geometry" />
        </mxCell>
        <mxCell id="o-LNRl5hChfJm9Mrvbxu-31" value="" style="endArrow=none;html=1;rounded=0;exitX=0.5;exitY=0;exitDx=0;exitDy=0;fillColor=#dae8fc;strokeColor=#000000;" edge="1" parent="1" source="o-LNRl5hChfJm9Mrvbxu-30" target="o-LNRl5hChfJm9Mrvbxu-29">
          <mxGeometry width="50" height="50" relative="1" as="geometry">
            <mxPoint x="170" y="309.64" as="sourcePoint" />
            <mxPoint x="220" y="259.64" as="targetPoint" />
          </mxGeometry>
        </mxCell>
        <mxCell id="o-LNRl5hChfJm9Mrvbxu-32" value="#19" style="text;html=1;align=center;verticalAlign=middle;resizable=0;points=[];autosize=1;strokeColor=none;fillColor=none;" vertex="1" parent="1">
          <mxGeometry x="140.00000000000003" y="284.11" width="40" height="30" as="geometry" />
        </mxCell>
        <mxCell id="o-LNRl5hChfJm9Mrvbxu-33" value="TPS 5v pwr" style="shape=hexagon;perimeter=hexagonPerimeter2;whiteSpace=wrap;html=1;fixedSize=1;" vertex="1" parent="1">
          <mxGeometry x="130.00000000000003" y="400.11" width="60" height="40" as="geometry" />
        </mxCell>
        <mxCell id="o-LNRl5hChfJm9Mrvbxu-34" value="" style="endArrow=none;html=1;rounded=0;exitX=0.5;exitY=0;exitDx=0;exitDy=0;fillColor=#f8cecc;strokeColor=#b85450;" edge="1" parent="1" source="o-LNRl5hChfJm9Mrvbxu-33" target="o-LNRl5hChfJm9Mrvbxu-32">
          <mxGeometry width="50" height="50" relative="1" as="geometry">
            <mxPoint x="210" y="306.64" as="sourcePoint" />
            <mxPoint x="260" y="256.64" as="targetPoint" />
          </mxGeometry>
        </mxCell>
        <mxCell id="o-LNRl5hChfJm9Mrvbxu-35" value="#32" style="text;html=1;align=center;verticalAlign=middle;resizable=0;points=[];autosize=1;strokeColor=none;fillColor=none;" vertex="1" parent="1">
          <mxGeometry x="451.1199999999999" y="287.11" width="40" height="30" as="geometry" />
        </mxCell>
        <mxCell id="o-LNRl5hChfJm9Mrvbxu-36" value="Oil Pres" style="shape=hexagon;perimeter=hexagonPerimeter2;whiteSpace=wrap;html=1;fixedSize=1;" vertex="1" parent="1">
          <mxGeometry x="441.1199999999999" y="346.64" width="60" height="40" as="geometry" />
        </mxCell>
        <mxCell id="o-LNRl5hChfJm9Mrvbxu-38" value="" style="endArrow=none;html=1;rounded=0;exitX=0.5;exitY=0;exitDx=0;exitDy=0;fillColor=#f5f5f5;strokeColor=#666666;" edge="1" parent="1" source="o-LNRl5hChfJm9Mrvbxu-36" target="o-LNRl5hChfJm9Mrvbxu-35">
          <mxGeometry width="50" height="50" relative="1" as="geometry">
            <mxPoint x="100" y="250" as="sourcePoint" />
            <mxPoint x="150" y="200" as="targetPoint" />
          </mxGeometry>
        </mxCell>
        <mxCell id="o-LNRl5hChfJm9Mrvbxu-39" value="" style="endArrow=none;html=1;rounded=0;exitX=0;exitY=0.75;exitDx=0;exitDy=0;fillColor=#f8cecc;strokeColor=#b85450;entryX=0.992;entryY=0.645;entryDx=0;entryDy=0;entryPerimeter=0;" edge="1" parent="1" source="o-LNRl5hChfJm9Mrvbxu-11" target="o-LNRl5hChfJm9Mrvbxu-42">
          <mxGeometry width="50" height="50" relative="1" as="geometry">
            <mxPoint x="585" y="200" as="sourcePoint" />
            <mxPoint x="90" y="180" as="targetPoint" />
          </mxGeometry>
        </mxCell>
        <mxCell id="o-LNRl5hChfJm9Mrvbxu-40" value="&lt;font style=&quot;font-size: 14px;&quot;&gt;#31&amp;nbsp;&lt;/font&gt;&lt;span style=&quot;text-wrap: wrap; background-color: rgb(251, 251, 251);&quot;&gt;&lt;font style=&quot;font-size: 14px;&quot;&gt;oil pres&lt;/font&gt;&lt;/span&gt;" style="edgeLabel;html=1;align=center;verticalAlign=middle;resizable=0;points=[];" vertex="1" connectable="0" parent="o-LNRl5hChfJm9Mrvbxu-39">
          <mxGeometry x="0.1156" y="-2" relative="1" as="geometry">
            <mxPoint as="offset" />
          </mxGeometry>
        </mxCell>
        <mxCell id="o-LNRl5hChfJm9Mrvbxu-42" value="34 pin conector" style="rounded=0;whiteSpace=wrap;html=1;" vertex="1" parent="1">
          <mxGeometry x="35" y="165.18" width="50" height="40" as="geometry" />
        </mxCell>
        <mxCell id="o-LNRl5hChfJm9Mrvbxu-44" value="" style="endArrow=none;html=1;rounded=0;entryX=0.5;entryY=1;entryDx=0;entryDy=0;exitX=0.5;exitY=0;exitDx=0;exitDy=0;" edge="1" parent="1" source="o-LNRl5hChfJm9Mrvbxu-42" target="V1QFwFLwy4jovvy6-5oq-1">
          <mxGeometry width="50" height="50" relative="1" as="geometry">
            <mxPoint x="30" y="240" as="sourcePoint" />
            <mxPoint x="80" y="190" as="targetPoint" />
          </mxGeometry>
        </mxCell>
        <mxCell id="o-LNRl5hChfJm9Mrvbxu-45" value="" style="endArrow=none;html=1;rounded=0;exitX=1;exitY=0.75;exitDx=0;exitDy=0;fillColor=#f8cecc;strokeColor=#b85450;entryX=0.015;entryY=0.049;entryDx=0;entryDy=0;entryPerimeter=0;" edge="1" parent="1" source="V1QFwFLwy4jovvy6-5oq-3" target="o-LNRl5hChfJm9Mrvbxu-11">
          <mxGeometry width="50" height="50" relative="1" as="geometry">
            <mxPoint x="319" y="68" as="sourcePoint" />
            <mxPoint x="409" y="42" as="targetPoint" />
          </mxGeometry>
        </mxCell>
        <mxCell id="o-LNRl5hChfJm9Mrvbxu-46" value="12v" style="edgeLabel;html=1;align=center;verticalAlign=middle;resizable=0;points=[];" vertex="1" connectable="0" parent="o-LNRl5hChfJm9Mrvbxu-45">
          <mxGeometry x="-0.0667" relative="1" as="geometry">
            <mxPoint as="offset" />
          </mxGeometry>
        </mxCell>
      </root>
    </mxGraphModel>
  </diagram>
</mxfile>
